<?xml version="1.0" encoding="UTF-8" standalone="no"?>
<!-- Created with Inkscape (http://www.inkscape.org/) -->

<svg
   version="1.1"
   id="svg1"
   width="257.33334"
   height="257.33334"
   viewBox="0 0 257.33334 257.33334"
   sodipodi:docname="LOGO-Olimex.svg"
   inkscape:version="1.3.2 (091e20ef0f, 2023-11-25, custom)"
   xmlns:inkscape="http://www.inkscape.org/namespaces/inkscape"
   xmlns:sodipodi="http://sodipodi.sourceforge.net/DTD/sodipodi-0.dtd"
   xmlns="http://www.w3.org/2000/svg"
   xmlns:svg="http://www.w3.org/2000/svg">
  <defs
     id="defs1" />
  <sodipodi:namedview
     id="namedview1"
     pagecolor="#ffffff"
     bordercolor="#000000"
     borderopacity="0.25"
     inkscape:showpageshadow="2"
     inkscape:pageopacity="0.0"
     inkscape:pagecheckerboard="0"
     inkscape:deskcolor="#d1d1d1"
     inkscape:zoom="4.2940412"
     inkscape:cx="128.66667"
     inkscape:cy="128.66667"
     inkscape:window-width="2560"
     inkscape:window-height="1372"
     inkscape:window-x="0"
     inkscape:window-y="32"
     inkscape:window-maximized="1"
     inkscape:current-layer="g1">
    <inkscape:page
       x="0"
       y="0"
       inkscape:label="1"
       id="page1"
       width="257.33334"
       height="257.33334"
       margin="0"
       bleed="0" />
  </sodipodi:namedview>
  <g
     id="g1"
     inkscape:groupmode="layer"
     inkscape:label="1">
    <path
       id="path1"
       d="M 0,1927.56 H 1927.56 V 0 H 0 v 1927.56"
       style="fill:#000000;fill-opacity:1.0;fill-rule:evenodd;stroke:none"
       transform="matrix(0.13333333,0,0,-0.13333333,0,257.33333)" />
    <path
       id="path2"
       d="m 74.078131,145.5219 -3.649999,-3.46522 v -39.7295 l -8.938534,0.0269 v 43.24242 l 8.859334,8.59292 h 0.156266 l 0.07507,0.10013 0.183333,-0.10013 h 17.511466 c 1.3468,1.39773 3.264534,2.29429 5.411867,2.29429 4.041733,0 7.278666,-3.11765 7.278666,-7.00339 0,-3.88382 -3.236933,-7.02249 -7.278666,-7.02249 -2.4848,0 -4.712933,1.21952 -6.033867,3.06405 z M 22.425466,117.9981 c 1.683867,1.19491 2.7724,3.16419 2.7724,5.37925 0,2.168 -1.088533,4.10767 -2.747333,5.3286 l 0.05413,11.98557 4.790133,4.83038 h 13.0552 l 4.690133,-4.88551 v -25.57811 l -4.583866,-4.65909 -13.393733,0.0282 -4.637067,4.63089 z m -8.857733,10.21014 c -1.374507,-1.1699 -2.229187,-2.91328 -2.229187,-4.83089 0,-1.96762 0.85468,-3.71125 2.229187,-4.87923 v -6.03093 l 10.6208,-10.18617 18.959866,-0.0269 10.9584,10.66182 v 30.58862 L 43.459866,154.0402 H 24.188533 l -10.6208,-10.26065 z m 4.661467,-6.97415 c 1.2692,0 2.252533,0.94617 2.252533,2.16774 0,1.19452 -0.983333,2.14352 -2.252533,2.14352 -1.2432,0 -2.227067,-0.949 -2.227067,-2.14352 0,-1.22157 0.983867,-2.16774 2.227067,-2.16774 z m 178.86813,4.43498 c 1.29467,0 2.33467,1.01965 2.33467,2.29122 0,1.24708 -1.04,2.29224 -2.33467,2.29224 -1.32133,0 -2.356,-1.04516 -2.356,-2.29224 0,-1.27157 1.03467,-2.29122 2.356,-2.29122 z m 41.21733,-21.9675 c 1.316,0 2.38133,0.99618 2.38133,2.23981 0,1.21798 -1.06533,2.26672 -2.38133,2.26672 -1.3,0 -2.336,-1.04874 -2.336,-2.26672 0,-1.24363 1.036,-2.23981 2.336,-2.23981 z m -82.74133,43.88616 c 1.32,0 2.35867,0.99656 2.35867,2.26621 0,1.29709 -1.03867,2.2907 -2.35867,2.2907 -1.292,0 -2.332,-0.99361 -2.332,-2.2907 0,-1.26965 1.04,-2.26621 2.332,-2.26621 z m -44.89,0 c 1.31827,0 2.3568,0.99656 2.3568,2.26621 0,1.29709 -1.03853,2.2907 -2.3568,2.2907 -1.29587,0 -2.38387,-0.99361 -2.38387,-2.2907 0,-1.26965 1.088,-2.26621 2.38387,-2.26621 z m -17.020799,-0.34655 c 1.347333,0 2.382267,1.01759 2.382267,2.29121 0,1.2435 -1.034934,2.24365 -2.382267,2.24365 -1.321333,0 -2.3568,-1.00015 -2.3568,-2.24365 0,-1.27362 1.035467,-2.29121 2.3568,-2.29121 z m -0.3636,-44.01654 c 1.3208,0 2.357333,1.02182 2.357333,2.29365 0,1.24747 -1.036533,2.2898 -2.357333,2.2898 -1.293733,0 -2.3828,-1.04233 -2.3828,-2.2898 0,-1.27183 1.089067,-2.29365 2.3828,-2.29365 z m 39.429199,25.03514 c 1.31987,0 2.3532,1.02016 2.3532,2.29019 0,1.24952 -1.03333,2.2907 -2.3532,2.2907 -1.29693,0 -2.38547,-1.04118 -2.38547,-2.2907 0,-1.27003 1.08854,-2.29019 2.38547,-2.29019 z m 105.78786,19.70206 c 1.22,0 2.256,0.99913 2.256,2.19006 0,1.17092 -1.036,2.14441 -2.256,2.14441 -1.24266,0 -2.22533,-0.97349 -2.22533,-2.14441 0,-1.19093 0.98267,-2.19006 2.22533,-2.19006 z m 6.84,1.91454 c 0,3.46573 -2.92533,6.40491 -6.42533,6.75248 -4.428,0.32309 -8.30933,-3.56073 -7.536,-7.77161 l -13.34267,-11.58082 -17.53333,16.91301 H 178.084 l -8.988,-8.66754 v -0.0256 -33.67781 l 9.37733,-9.56435 h 22.27733 l 17.61867,16.71326 12.716,-12.30417 c 0,-0.2718 -0.0773,-0.49617 -0.0773,-0.74874 0,-3.88471 3.26134,-7.021977 7.30667,-7.021977 4.088,0 7.35467,3.137267 7.35467,7.021977 0,3.886 -3.26667,7.00147 -7.35467,7.00147 -0.34267,0 -0.652,0 -0.988,-0.0513 l -13.70533,13.12842 h -10.8 c -5.15467,-4.95642 -10.54134,-9.93732 -15.8,-14.96822 h -15.36 l -3.59733,3.45907 v 9.49038 h 13.02533 c 1.29333,-1.86582 3.47067,-3.01201 6.008,-3.01201 4.01733,0 7.25333,3.11521 7.25333,6.99801 0,3.88779 -3.236,6.99787 -7.25333,6.99787 -2.692,0 -4.99867,-1.42029 -6.268,-3.46163 H 178.064 v 10.65887 l 3.648,3.3665 h 15.38533 l 15.804,-15.19475 10.62,0.0205 14.06266,13.00662 c 3.94134,-0.64899 7.772,2.86264 7.772,6.5221 z m -85.27466,-47.59536 c 0,13.99524 0.08,27.99407 0.08,42.0229 1.65467,1.26798 2.76933,3.2597 2.76933,5.50143 0,3.93433 -3.264,7.04839 -7.30666,7.04839 -4.09067,0 -7.304,-3.11406 -7.304,-7.04839 0,-2.24173 1.116,-4.23345 2.85066,-5.53053 v -33.24998 h -7.46133 l -6.50267,5.40271 v 8.47073 c 1.68534,1.24401 2.72,3.23727 2.72,5.52553 0,3.8878 -3.24,7.00339 -7.2788,7.00339 -4.0416,0 -7.25306,-3.11559 -7.25306,-7.00339 0,-2.38942 1.21613,-4.52986 3.1328,-5.8004 v -8.19586 l -6.526,-5.40271 h -6.68387 v 33.32562 c 1.65733,1.32016 2.6948,3.28881 2.6948,5.45489 0,3.93433 -3.29227,7.04839 -7.3292,7.04839 -4.06973,0 -7.2568,-3.11406 -7.2568,-7.04839 0,-2.29032 1.1156,-4.30909 2.9292,-5.58117 l -0.0771,-41.897 h 18.00107 l 8.68013,7.25147 9.24814,-7.25147 z m -62.758932,35.29093 h -7.780267 v -26.14966 c -2.1228,-1.22183 -3.547866,-3.43855 -3.547866,-5.954 0,-3.88472 3.263066,-6.997623 7.304666,-6.997623 4.0432,0 7.279729,3.112903 7.279729,6.997623 0,2.41545 -1.338529,4.56166 -3.256262,5.80143 v 26.15748 0.14475"
       style="fill:#db1f26;fill-opacity:1;fill-rule:evenodd;stroke:none;stroke-width:0.130746"
       inkscape:export-filename="olimex.png"
       inkscape:export-xdpi="40"
       inkscape:export-ydpi="40" />
  </g>
</svg>
