<?xml version="1.0" encoding="UTF-8" standalone="no"?>
<!-- Created with Inkscape (http://www.inkscape.org/) -->

<svg
   version="1.1"
   id="svg1"
   width="257.33334"
   height="257.33334"
   viewBox="0 0 257.33334 257.33334"
   sodipodi:docname="LOGO-Olimex.svg"
   inkscape:version="1.3.2 (091e20ef0f, 2023-11-25, custom)"
   xmlns:inkscape="http://www.inkscape.org/namespaces/inkscape"
   xmlns:sodipodi="http://sodipodi.sourceforge.net/DTD/sodipodi-0.dtd"
   xmlns="http://www.w3.org/2000/svg"
   xmlns:svg="http://www.w3.org/2000/svg">
  <defs
     id="defs1" />
  <sodipodi:namedview
     id="namedview1"
     pagecolor="#ffffff"
     bordercolor="#000000"
     borderopacity="0.25"
     inkscape:showpageshadow="2"
     inkscape:pageopacity="0.0"
     inkscape:pagecheckerboard="0"
     inkscape:deskcolor="#d1d1d1"
     inkscape:zoom="4.2940412"
     inkscape:cx="128.66667"
     inkscape:cy="128.66667"
     inkscape:window-width="2560"
     inkscape:window-height="1372"
     inkscape:window-x="0"
     inkscape:window-y="32"
     inkscape:window-maximized="1"
     inkscape:current-layer="g1">
    <inkscape:page
       x="0"
       y="0"
       inkscape:label="1"
       id="page1"
       width="257.33334"
       height="257.33334"
       margin="0"
       bleed="0" />
  </sodipodi:namedview>
  <g
     id="g1"
     inkscape:groupmode="layer"
     inkscape:label="1">
    <path
       id="path1"
       d="M 0,1927.56 H 1927.56 V 0 H 0 v 1927.56"
       style="fill:#ffffff;fill-opacity:1;fill-rule:evenodd;stroke:none"
       transform="matrix(0.13333333,0,0,-0.13333333,0,257.33333)" />
    <path
       id="path2"
       d="m 555.586,824.48 -27.375,27.028 v 309.882 l -67.039,-0.21 V 823.898 l 66.445,-67.023 h 1.172 l 0.563,-0.781 1.375,0.781 h 131.336 c 10.101,-10.902 24.484,-17.895 40.589,-17.895 30.313,0 54.59,24.317 54.59,54.625 0,30.293 -24.277,54.774 -54.59,54.774 -18.636,0 -35.347,-9.512 -45.254,-23.899 z m -387.395,214.68 c 12.629,-9.32 20.793,-24.68 20.793,-41.957 0,-16.91 -8.164,-32.039 -20.605,-41.562 l 0.406,-93.485 35.926,-37.676 h 97.914 l 35.176,38.106 v 199.504 l -34.379,36.34 -100.453,-0.22 -34.778,-36.12 z m -66.433,-79.637 c -10.3088,9.125 -16.7189,22.723 -16.7189,37.68 0,15.347 6.4101,28.947 16.7189,38.057 v 47.04 l 79.656,79.45 142.199,0.21 82.188,-83.16 V 840.215 L 325.949,758.039 H 181.414 l -79.656,80.031 z m 34.961,54.397 c 9.519,0 16.894,-7.38 16.894,-16.908 0,-9.317 -7.375,-16.719 -16.894,-16.719 -9.324,0 -16.703,7.402 -16.703,16.719 0,9.528 7.379,16.908 16.703,16.908 z M 1478.23,979.328 c 9.71,0 17.51,-7.953 17.51,-17.871 0,-9.727 -7.8,-17.879 -17.51,-17.879 -9.91,0 -17.67,8.152 -17.67,17.879 0,9.918 7.76,17.871 17.67,17.871 z m 309.13,171.342 c 9.87,0 17.86,-7.77 17.86,-17.47 0,-9.5 -7.99,-17.68 -17.86,-17.68 -9.75,0 -17.52,8.18 -17.52,17.68 0,9.7 7.77,17.47 17.52,17.47 z M 1166.8,808.367 c 9.9,0 17.69,-7.773 17.69,-17.676 0,-10.117 -7.79,-17.867 -17.69,-17.867 -9.69,0 -17.49,7.75 -17.49,17.867 0,9.903 7.8,17.676 17.49,17.676 z m -336.675,0 c 9.887,0 17.676,-7.773 17.676,-17.676 0,-10.117 -7.789,-17.867 -17.676,-17.867 -9.719,0 -17.879,7.75 -17.879,17.867 0,9.903 8.16,17.676 17.879,17.676 z m -127.656,2.703 c 10.105,0 17.867,-7.937 17.867,-17.871 0,-9.699 -7.762,-17.5 -17.867,-17.5 -9.91,0 -17.676,7.801 -17.676,17.5 0,9.934 7.766,17.871 17.676,17.871 z m -2.727,343.32 c 9.906,0 17.68,-7.97 17.68,-17.89 0,-9.73 -7.774,-17.86 -17.68,-17.86 -9.703,0 -17.871,8.13 -17.871,17.86 0,9.92 8.168,17.89 17.871,17.89 z M 995.461,959.121 c 9.899,0 17.649,-7.957 17.649,-17.863 0,-9.746 -7.75,-17.867 -17.649,-17.867 -9.727,0 -17.891,8.121 -17.891,17.867 0,9.906 8.164,17.863 17.891,17.863 z M 1788.87,805.449 c 9.15,0 16.92,-7.793 16.92,-17.082 0,-9.133 -7.77,-16.726 -16.92,-16.726 -9.32,0 -16.69,7.593 -16.69,16.726 0,9.289 7.37,17.082 16.69,17.082 z m 51.3,-14.933 c 0,-27.032 -21.94,-49.957 -48.19,-52.668 -33.21,-2.52 -62.32,27.773 -56.52,60.617 l -100.07,90.328 -131.5,-131.918 h -168.26 l -67.41,67.605 v 0.2 262.68 l 70.33,74.6 h 167.08 l 132.14,-130.36 95.37,95.97 c 0,2.12 -0.58,3.87 -0.58,5.84 0,30.3 24.46,54.77 54.8,54.77 30.66,0 55.16,-24.47 55.16,-54.77 0,-30.31 -24.5,-54.61 -55.16,-54.61 -2.57,0 -4.89,0 -7.41,0.4 L 1677.16,976.801 h -81 c -38.66,38.659 -79.06,77.509 -118.5,116.749 h -115.2 l -26.98,-26.98 v -74.023 h 97.69 c 9.7,14.553 26.03,23.493 45.06,23.493 30.13,0 54.4,-24.298 54.4,-54.583 0,-30.324 -24.27,-54.582 -54.4,-54.582 -20.19,0 -37.49,11.078 -47.01,27 h -95.74 v -83.137 l 27.36,-26.258 h 115.39 l 118.53,118.516 79.65,-0.16 105.47,-101.449 c 29.56,5.062 58.29,-22.328 58.29,-50.871 z m -639.56,371.234 c 0,-109.16 0.6,-218.348 0.6,-327.77 12.41,-9.89 20.77,-25.425 20.77,-42.91 0,-30.687 -24.48,-54.976 -54.8,-54.976 -30.68,0 -54.78,24.289 -54.78,54.976 0,17.485 8.37,33.02 21.38,43.137 v 259.343 h -55.96 l -48.77,-42.14 v -66.07 c 12.64,-9.703 20.4,-25.25 20.4,-43.098 0,-30.324 -24.3,-54.625 -54.591,-54.625 -30.312,0 -54.398,24.301 -54.398,54.625 0,18.637 9.121,35.332 23.496,45.242 v 63.926 l -48.945,42.14 H 864.883 V 833.617 c 12.43,-10.297 20.211,-25.652 20.211,-42.547 0,-30.687 -24.692,-54.976 -54.969,-54.976 -30.523,0 -54.426,24.289 -54.426,54.976 0,17.864 8.367,33.61 21.969,43.532 l -0.578,326.788 h 135.008 l 65.101,-56.56 69.361,56.56 z M 729.918,886.488 h -58.352 v 203.962 c -15.921,9.53 -26.609,26.82 -26.609,46.44 0,30.3 24.473,54.58 54.785,54.58 30.324,0 54.598,-24.28 54.598,-54.58 0,-18.84 -10.039,-35.58 -24.422,-45.25 v -204.023 -1.129"
       style="fill:#db1f26;fill-opacity:1;fill-rule:evenodd;stroke:none"
       transform="matrix(0.13333333,0,0,-0.13333333,0,257.33333)" />
  </g>
</svg>
